<svg width="66" height="66" viewBox="0 0 66 66" fill="none" xmlns="http://www.w3.org/2000/svg">
<g id="Standard Collection 0">
<g id="Clip path group">
<mask id="mask0_2030_131" style="mask-type:luminance" maskUnits="userSpaceOnUse" x="0" y="0" width="66" height="66">
<g id="clip0">
<path id="Vector" d="M66 0H0V66H66V0Z" fill="white"/>
</g>
</mask>
<g mask="url(#mask0_2030_131)">
<g id="Group">
<path id="Vector_2" d="M56.2999 56.2831C62.5233 50.1005 66.0122 41.7261 66.0001 32.9995C65.9935 32.4609 65.7728 31.9465 65.3855 31.568C64.9982 31.1892 64.476 30.9771 63.9318 30.9771C63.3872 30.9771 62.865 31.1892 62.4777 31.568C62.0904 31.9465 61.8698 32.4609 61.8631 32.9995C61.8719 40.6471 58.8129 47.9858 53.3583 53.403C50.7104 56.0934 47.5448 58.2317 44.0481 59.6919C40.5517 61.1518 36.7951 61.9041 33.0001 61.9041C29.2051 61.9041 25.4485 61.1518 21.952 59.6919C18.4555 58.2317 15.2899 56.0934 12.6419 53.403C7.19464 47.9804 4.13712 40.6447 4.13712 32.9983C4.13712 25.3518 7.19464 18.0161 12.6419 12.5934C15.2744 9.92369 18.4163 7.79773 21.8853 6.33874C25.3543 4.87979 29.0815 4.11683 32.8507 4.09412C33.6554 4.11907 34.4185 4.45422 34.9773 5.02805C35.536 5.60186 35.846 6.369 35.8412 7.16585C35.8367 7.96269 35.5176 8.72619 34.9522 9.29357C34.3868 9.86093 33.6198 10.1872 32.8148 10.2029C32.7402 10.2031 32.6656 10.2072 32.5917 10.2152C26.8572 10.3979 21.4161 12.7675 17.4061 16.8285C13.1713 21.0475 10.7945 26.7528 10.7945 32.6996C10.7945 38.6465 13.1713 44.3517 17.4061 48.5707C19.475 50.6681 21.9468 52.3347 24.6762 53.4726C27.4055 54.6105 30.3374 55.1966 33.2989 55.1966C36.2605 55.1966 39.1924 54.6105 41.9218 53.4726C44.6509 52.3347 47.1228 50.6681 49.1918 48.5707C53.4332 44.3562 55.8109 38.648 55.8024 32.6996C55.8112 31.7628 55.6322 30.8331 55.276 29.965C54.9195 29.097 54.3931 28.3074 53.7266 27.6418C53.0601 26.9762 52.2671 26.4478 51.3932 26.0873C50.5193 25.7267 49.5821 25.5411 48.6351 25.5411C47.6882 25.5411 46.7509 25.7267 45.8771 26.0873C45.0032 26.4478 44.2102 26.9762 43.5437 27.6418C42.8772 28.3074 42.3508 29.097 41.9943 29.965C41.6381 30.8331 41.4591 31.7628 41.4678 32.6996C41.4678 32.7594 41.4717 32.8155 41.4766 32.8729C41.4717 32.9302 41.4678 32.9876 41.4678 33.0461C41.4814 34.6796 41.0042 36.2802 40.0968 37.6451C39.1897 39.0097 37.8932 40.0768 36.3722 40.7113C34.8511 41.3455 33.1737 41.5185 31.5533 41.2081C29.9327 40.8974 28.4418 40.1177 27.2699 38.9673C26.0979 37.8169 25.2977 36.348 24.9707 34.7468C24.6437 33.1456 24.8046 31.4844 25.4332 29.974C26.0617 28.4633 27.1294 27.1716 28.5009 26.2627C29.8725 25.3537 31.486 24.8684 33.1365 24.8683C33.4103 24.8716 33.682 24.8211 33.9359 24.7197C34.1897 24.6182 34.4206 24.468 34.6153 24.2776C34.81 24.0872 34.9649 23.8604 35.0702 23.6104C35.1759 23.3604 35.2302 23.0922 35.2302 22.8213C35.2302 22.5503 35.1759 22.2821 35.0702 22.0321C34.9649 21.7821 34.81 21.5553 34.6153 21.3649C34.4206 21.1745 34.1897 21.0243 33.9359 20.9228C33.682 20.8214 33.4103 20.7709 33.1365 20.7742C30.687 20.7876 28.2962 21.5188 26.266 22.8755C24.2357 24.2321 22.657 26.1535 21.729 28.3971C20.801 30.6407 20.5653 33.1062 21.0515 35.4823C21.5377 37.8584 22.7242 40.0386 24.4612 41.7482C26.1982 43.4576 28.4079 44.6197 30.8116 45.0878C33.215 45.5556 35.705 45.3085 37.9669 44.3777C40.2287 43.4468 42.1615 41.874 43.5211 39.8572C44.8806 37.8405 45.606 35.4704 45.606 33.0461C45.606 32.9864 45.6021 32.9302 45.5972 32.8729C45.6021 32.8155 45.606 32.7582 45.606 32.6996C45.5978 32.3008 45.6703 31.9044 45.8191 31.5334C45.9676 31.1626 46.1898 30.8248 46.4717 30.5401C46.7539 30.2551 47.0908 30.0286 47.4624 29.8742C47.834 29.7197 48.2334 29.6402 48.6363 29.6402C49.0393 29.6402 49.4387 29.7197 49.8103 29.8742C50.1818 30.0286 50.5187 30.2551 50.801 30.5401C51.0829 30.8248 51.3051 31.1626 51.4536 31.5334C51.6024 31.9044 51.6748 32.3008 51.6667 32.6996C51.6721 37.5696 49.7242 42.2423 46.2508 45.6918C44.5667 47.4041 42.553 48.7649 40.3286 49.6942C38.1042 50.6236 35.7141 51.1022 33.2995 51.1022C30.8853 51.1022 28.4953 50.6236 26.2708 49.6942C24.0465 48.7649 22.0328 47.4041 20.3486 45.6918C16.8798 42.2393 14.9328 37.5684 14.9328 32.6996C14.9328 27.8309 16.8798 23.16 20.3486 19.7074C22.0341 17.9973 24.0478 16.6377 26.2717 15.7087C28.4955 14.7795 30.8844 14.2996 33.2983 14.2971C33.484 14.2965 33.6687 14.2712 33.8477 14.2218C35.6088 13.9545 37.2077 13.0532 38.3385 11.6908C39.4692 10.3284 40.0518 8.60075 39.9745 6.83939C39.8972 5.078 39.1652 3.40689 37.9195 2.14662C36.6737 0.886338 35.0017 0.125636 33.2241 0.0104419C33.1498 0.00243737 33.075 -0.00165119 33.0001 -0.00180626C32.9584 -0.00180626 32.9171 -0.00180626 32.8754 -0.00180626C32.8549 -0.00180626 32.835 -0.00180626 32.8151 -0.00180626C32.7951 -0.00180626 32.7746 0.000581963 32.7547 0.00117943C28.4544 0.0346482 24.2034 0.910195 20.2467 2.57734C16.2899 4.24447 12.7058 6.67025 9.7009 9.71479C3.48777 15.9039 0.000671387 24.2739 0.000671387 32.9983C0.000671387 41.7225 3.48777 50.0924 9.7009 56.2816C12.7336 59.3571 16.3573 61.8013 20.3587 63.4697C24.3602 65.1384 28.6585 65.9982 33.0007 65.9982C37.3429 65.9982 41.6411 65.1384 45.6428 63.4697C49.6442 61.8013 53.2677 59.3571 56.3005 56.2816L56.2999 56.2831Z" fill="url(#paint0_linear_2030_131)"/>
</g>
</g>
</g>
</g>
<defs>
<linearGradient id="paint0_linear_2030_131" x1="9.57059" y1="56.1642" x2="51.0845" y2="15.1125" gradientUnits="userSpaceOnUse">
<stop stop-color="#41287B"/>
<stop offset="0.123" stop-color="#462779"/>
<stop offset="0.284" stop-color="#572775"/>
<stop offset="0.465" stop-color="#72266E"/>
<stop offset="0.663" stop-color="#982565"/>
<stop offset="0.87" stop-color="#C82459"/>
<stop offset="0.99" stop-color="#E72452"/>
</linearGradient>
</defs>
</svg>
